<svg xmlns="http://www.w3.org/2000/svg" width="92.46" height="88.055" viewBox="0 0 92.46 88.055">
  <g id="Grupo_1065154" data-name="Grupo 1065154" transform="translate(0 -9.083)">
    <path id="Trazado_779567" data-name="Trazado 779567" d="M50.979,153.407H7.8V79.254H64.122V140.43Z" transform="translate(26.93 -57.659)" fill="#fff"/>
    <path id="Trazado_779568" data-name="Trazado 779568" d="M20.939,422.343H7.8V435.32" transform="translate(70.112 -339.572)" fill="#fdc35c"/>
    <path id="Trazado_779572" data-name="Trazado 779572" d="M0,11.171l4.683-.023L4.737,0,.054.023Z" transform="translate(22.18 49.207) rotate(24.999)" fill="#fff"/>
    <path id="Trazado_779573" data-name="Trazado 779573" d="M0,32.555l8.429-.041L8.588,0,.159.041Z" transform="translate(15.631 58.446) rotate(24.999)" fill="#e01650"/>
    <path id="Trazado_779574" data-name="Trazado 779574" d="M.041,8.429l5.574.027L5.574.027,0,0Z" transform="translate(11.907 86.434) rotate(114.999)" fill="#fff"/>
    <ellipse id="Elipse_8719" data-name="Elipse 8719" cx="21.122" cy="20.855" rx="21.122" ry="20.855" transform="translate(12.151 10.472)" fill="#8f52f5"/>
    <ellipse id="Elipse_8720" data-name="Elipse 8720" cx="14.081" cy="13.904" rx="14.081" ry="13.904" transform="translate(19.191 17.424)" fill="#fff"/>
    <ellipse id="Elipse_8721" data-name="Elipse 8721" cx="7.041" cy="6.952" rx="7.041" ry="6.952" transform="translate(26.232 22.059)" fill="#ffb206"/>
    <ellipse id="Elipse_8722" data-name="Elipse 8722" cx="2.816" cy="2.781" rx="2.816" ry="2.781" transform="translate(30.456 26.23)" fill="#fff"/>
    <rect id="Rectángulo_374208" data-name="Rectángulo 374208" width="27.907" height="2.781" transform="translate(57.512 35.035)"/>
    <rect id="Rectángulo_374209" data-name="Rectángulo 374209" width="33.231" height="2.781" transform="translate(52.188 46.158)"/>
    <rect id="Rectángulo_374210" data-name="Rectángulo 374210" width="39.427" height="2.781" transform="translate(45.992 51.72)"/>
    <rect id="Rectángulo_374211" data-name="Rectángulo 374211" width="45.06" height="2.781" transform="translate(40.36 57.281)"/>
    <rect id="Rectángulo_374212" data-name="Rectángulo 374212" width="45.06" height="2.781" transform="translate(40.36 62.843)"/>
    <rect id="Rectángulo_374213" data-name="Rectángulo 374213" width="45.06" height="2.781" transform="translate(40.36 68.404)"/>
    <rect id="Rectángulo_374214" data-name="Rectángulo 374214" width="35.672" height="2.781" transform="translate(49.747 73.965)"/>
    <rect id="Rectángulo_374215" data-name="Rectángulo 374215" width="22.53" height="2.781" transform="translate(40.36 85.088)"/>
    <path id="Trazado_779569" data-name="Trazado 779569" d="M15.076,56.7l1.7.783,3.7-7.842a22.116,22.116,0,0,1-7.627-27.715h0a22.679,22.679,0,0,1,29.94-10.76A22.269,22.269,0,0,1,55.719,29.474H76.032v2.781H55.782a21.883,21.883,0,0,1-2.03,8.342H85.419v2.781H52.209A22.6,22.6,0,0,1,36.135,53.384V94.357H77.326L89.644,82.2V22.986H55.71V20.2H92.46V83.347L78.493,97.138H33.319V53.571h-.081a22.625,22.625,0,0,1-5.951-.8l-2.711,5.741-2.552-1.175,2.588-5.48c-.288-.118-.575-.241-.86-.372s-.565-.269-.842-.41L19.33,58.658,25.285,61.4,10.209,93.323,0,88.622Zm9.865-7.73a19.844,19.844,0,0,0,26.2-9.415A19.384,19.384,0,0,0,41.6,13.686a19.856,19.856,0,0,0-26.2,9.415A19.384,19.384,0,0,0,24.941,48.969ZM16.438,60.4,6.123,82.237l5.1,2.35L21.543,62.746ZM8.847,89.627l1.19-2.52-5.1-2.35-1.19,2.52Z" transform="translate(0 0)"/>
    <path id="Trazado_779570" data-name="Trazado 779570" d="M312.808,101.62a4.225,4.225,0,1,1-4.224-4.171A4.2,4.2,0,0,1,312.808,101.62Zm-5.632,0a1.408,1.408,0,1,0,1.408-1.39A1.4,1.4,0,0,0,307.175,101.62Z" transform="translate(-275.311 -72.609)"/>
    <path id="Trazado_779571" data-name="Trazado 779571" d="M243.426,84.062c.046.085,4.706,8.533,12.839,8.533a13.408,13.408,0,0,0,9.4-4.18,21.283,21.283,0,0,0,3.043-3.7,20.728,20.728,0,0,0-4.4-4.882,8.216,8.216,0,0,1,.41,2.565,8.449,8.449,0,0,1-16.9,0,8.215,8.215,0,0,1,.412-2.569c-.442.351-.879.728-1.309,1.139l-1.96-2a16.433,16.433,0,0,1,10.861-4.9q.221-.012.445-.012c9.8,0,15.1,9.6,15.323,10l.354.655-.354.655c-.221.409-5.519,10-15.323,10s-15.1-9.6-15.323-10Zm7.206-1.663a5.633,5.633,0,1,0,5.933-5.553c-.1,0-.2-.008-.3-.008s-.2.005-.3.008A5.6,5.6,0,0,0,250.632,82.4Z" transform="translate(-222.992 -53.388)"/>
  </g>
</svg>
