<svg id="Grupo_1065158" data-name="Grupo 1065158" xmlns="http://www.w3.org/2000/svg" width="89.376" height="89.376" viewBox="0 0 89.376 89.376">
  <g id="Grupo_1065156" data-name="Grupo 1065156" transform="translate(1.746 1.746)">
    <path id="Trazado_779575" data-name="Trazado 779575" d="M30,108.986h78.9v-3.492A3.5,3.5,0,0,0,105.412,102H33.492A3.5,3.5,0,0,0,30,105.494v3.492Z" transform="translate(-26.51 -85.943)" fill="#a7bdcd" fill-rule="evenodd"/>
    <path id="Trazado_779576" data-name="Trazado 779576" d="M30,142.005h78.9v47.131H30Z" transform="translate(-26.51 -118.962)" fill="#99ebfa" fill-rule="evenodd"/>
    <path id="Trazado_779577" data-name="Trazado 779577" d="M108.9,412H30v6.983H58.978a1.751,1.751,0,0,0,1.746,1.746H78.18a1.751,1.751,0,0,0,1.746-1.746H108.9Z" transform="translate(-26.51 -341.827)" fill="#a7bdcd" fill-rule="evenodd"/>
    <path id="Trazado_779578" data-name="Trazado 779578" d="M61.67,453.748H44.214A1.751,1.751,0,0,1,42.469,452H10v5.237a3.5,3.5,0,0,0,3.491,3.491h78.9a3.5,3.5,0,0,0,3.491-3.491V452H63.416A1.751,1.751,0,0,1,61.67,453.748Z" transform="translate(-10 -374.845)" fill="#6d91ac" fill-rule="evenodd"/>
    <g id="Grupo_1065155" data-name="Grupo 1065155" transform="translate(18.432 6.209)">
      <circle id="Elipse_8723" data-name="Elipse 8723" cx="3.491" cy="3.491" r="3.491" transform="matrix(0.967, -0.256, 0.256, 0.967, 0, 1.788)" fill="#e01650"/>
      <ellipse id="Elipse_8724" data-name="Elipse 8724" cx="3.535" cy="3.094" rx="3.535" ry="3.094" transform="translate(1.035 16.898)" fill="#e01650"/>
      <circle id="Elipse_8725" data-name="Elipse 8725" cx="3.535" cy="3.535" r="3.535" transform="translate(1.035 31.923)" fill="#ff5d7d"/>
      <path id="Trazado_779596" data-name="Trazado 779596" d="M3.535,0A3.535,3.535,0,1,1,0,3.535,3.535,3.535,0,0,1,3.535,0Z" transform="translate(1.035 47.833)" fill="#e01650"/>
    </g>
    <path id="Trazado_779579" data-name="Trazado 779579" d="M90.476,64.115a3.491,3.491,0,1,1-3.491,3.491A3.491,3.491,0,0,1,90.476,64.115Zm50.971,16.059V11.746A1.751,1.751,0,0,0,139.7,10H81.748A1.752,1.752,0,0,0,80,11.746V80.174h61.445ZM93.967,51.9A3.491,3.491,0,1,1,90.476,48.4,3.491,3.491,0,0,1,93.967,51.9Zm21.5,15.752A3.491,3.491,0,0,1,120.4,62.71l2.053,2.053,6.052-6.052a3.491,3.491,0,1,1,4.937,4.937l-8.521,8.521a3.491,3.491,0,0,1-4.937,0Zm-21.5-31.462a3.491,3.491,0,1,1-3.491-3.491A3.491,3.491,0,0,1,93.967,36.185Zm0-15.711a3.491,3.491,0,1,1-3.491-3.491A3.491,3.491,0,0,1,93.967,20.474Z" transform="translate(-67.782 -10)" fill="#fff" fill-rule="evenodd"/>
    <path id="Trazado_779580" data-name="Trazado 779580" d="M278.311,293.15l4.521,4.521a3.491,3.491,0,0,0,4.937,0l8.521-8.521a3.491,3.491,0,0,0-4.937-4.937l-6.052,6.052-2.053-2.053a3.491,3.491,0,0,0-4.937,4.937Z" transform="translate(-230.63 -235.503)" fill="#ffb206" fill-rule="evenodd"/>
  </g>
  <g id="Grupo_1065157" data-name="Grupo 1065157" transform="translate(0 0)">
    <path id="Trazado_779581" data-name="Trazado 779581" d="M87.63,77.157H85.885V21.3a5.243,5.243,0,0,0-5.237-5.237H77.156V3.491A3.5,3.5,0,0,0,73.665,0H15.711A3.5,3.5,0,0,0,12.22,3.491V16.06H8.728A5.243,5.243,0,0,0,3.491,21.3v55.86H1.746A1.746,1.746,0,0,0,0,78.9v5.237a5.243,5.243,0,0,0,5.237,5.237h78.9a5.243,5.243,0,0,0,5.237-5.237V78.9a1.745,1.745,0,0,0-1.745-1.746ZM77.156,26.534h5.237v43.64H77.156Zm0-6.983h3.491A1.748,1.748,0,0,1,82.393,21.3v1.746H77.156V19.551ZM6.983,26.534H12.22v43.64H6.983Zm1.746-6.983H12.22v3.491H6.983V21.3A1.748,1.748,0,0,1,8.728,19.551Zm-1.746,57.6V73.665H36.832a1.746,1.746,0,1,0,0-3.491H15.711V3.491H73.665V70.174H52.543a1.746,1.746,0,1,0,0,3.491H82.393v3.491H55.162A1.746,1.746,0,0,0,53.416,78.9H35.96a1.746,1.746,0,0,0-1.746-1.746H6.983Zm78.9,6.983a1.748,1.748,0,0,1-1.746,1.746H5.237a1.748,1.748,0,0,1-1.746-1.746V80.648H32.937a3.493,3.493,0,0,0,3.023,1.746H53.416a3.493,3.493,0,0,0,3.023-1.746H85.885Z" transform="translate(0 0)"/>
    <path id="Trazado_779582" data-name="Trazado 779582" d="M285.567,273.191a5.2,5.2,0,0,0-3.7,1.534l-4.818,4.818-.819-.819a5.237,5.237,0,0,0-7.406,7.406l4.521,4.522a5.243,5.243,0,0,0,7.406,0l8.521-8.521a5.237,5.237,0,0,0-3.7-8.939Zm1.234,6.471-8.521,8.521a1.747,1.747,0,0,1-2.468,0l-4.521-4.522a1.745,1.745,0,1,1,2.468-2.468l2.053,2.053a1.746,1.746,0,0,0,2.469,0l6.052-6.052a1.745,1.745,0,0,1,2.469,2.468Z" transform="translate(-220.63 -225.502)"/>
    <path id="Trazado_779583" data-name="Trazado 779583" d="M115.242,40a5.237,5.237,0,1,0,5.237,5.237A5.243,5.243,0,0,0,115.242,40Zm0,6.982a1.746,1.746,0,1,1,1.746-1.746A1.748,1.748,0,0,1,115.242,46.983Z" transform="translate(-90.802 -33.018)"/>
    <path id="Trazado_779584" data-name="Trazado 779584" d="M191.751,43.492h33.515a1.746,1.746,0,1,0,0-3.491H191.751a1.746,1.746,0,0,0,0,3.491Z" transform="translate(-156.837 -33.018)"/>
    <path id="Trazado_779585" data-name="Trazado 779585" d="M191.751,83.492h33.515a1.746,1.746,0,1,0,0-3.491H191.751a1.746,1.746,0,0,0,0,3.491Z" transform="translate(-156.837 -66.036)"/>
    <path id="Trazado_779586" data-name="Trazado 779586" d="M115.242,130a5.237,5.237,0,1,0,5.237,5.237A5.243,5.243,0,0,0,115.242,130Zm0,6.982a1.746,1.746,0,1,1,1.746-1.746A1.748,1.748,0,0,1,115.242,136.985Z" transform="translate(-90.802 -107.309)"/>
    <path id="Trazado_779587" data-name="Trazado 779587" d="M191.751,133.494h33.515a1.746,1.746,0,1,0,0-3.491H191.751a1.746,1.746,0,0,0,0,3.491Z" transform="translate(-156.837 -107.309)"/>
    <path id="Trazado_779588" data-name="Trazado 779588" d="M191.751,173.493h33.515a1.746,1.746,0,1,0,0-3.491H191.751a1.746,1.746,0,0,0,0,3.491Z" transform="translate(-156.837 -140.326)"/>
    <path id="Trazado_779589" data-name="Trazado 779589" d="M115.242,220a5.237,5.237,0,1,0,5.237,5.237A5.243,5.243,0,0,0,115.242,220Zm0,6.982a1.746,1.746,0,1,1,1.746-1.746A1.748,1.748,0,0,1,115.242,226.986Z" transform="translate(-90.802 -181.6)"/>
    <path id="Trazado_779590" data-name="Trazado 779590" d="M191.751,223.5h33.515a1.746,1.746,0,1,0,0-3.491H191.751a1.746,1.746,0,0,0,0,3.491Z" transform="translate(-156.837 -181.6)"/>
    <path id="Trazado_779591" data-name="Trazado 779591" d="M191.751,263.5h16.757a1.746,1.746,0,1,0,0-3.491H191.751a1.746,1.746,0,0,0,0,3.491Z" transform="translate(-156.837 -214.617)"/>
    <path id="Trazado_779592" data-name="Trazado 779592" d="M115.242,310a5.237,5.237,0,1,0,5.237,5.237A5.243,5.243,0,0,0,115.242,310Zm0,6.983a1.746,1.746,0,1,1,1.746-1.746A1.748,1.748,0,0,1,115.242,316.988Z" transform="translate(-90.802 -255.89)"/>
    <path id="Trazado_779593" data-name="Trazado 779593" d="M191.751,313.5h6.423a1.746,1.746,0,0,0,0-3.491h-6.423a1.746,1.746,0,0,0,0,3.491Z" transform="translate(-156.838 -255.891)"/>
    <path id="Trazado_779594" data-name="Trazado 779594" d="M199.92,351.751A1.746,1.746,0,0,0,198.174,350h-6.423a1.746,1.746,0,0,0,0,3.491h6.423a1.746,1.746,0,0,0,1.746-1.746Z" transform="translate(-156.838 -288.908)"/>
    <path id="Trazado_779595" data-name="Trazado 779595" d="M247.744,402h0a1.746,1.746,0,1,0,1.747,1.746A1.745,1.745,0,0,0,247.743,402Z" transform="translate(-203.056 -331.826)"/>
  </g>
</svg>
