<svg xmlns="http://www.w3.org/2000/svg" width="85" height="82.41" viewBox="0 0 85 82.41">
  <g id="Grupo_1065164" data-name="Grupo 1065164" transform="translate(0 -7.801)">
    <g id="Grupo_1065162" data-name="Grupo 1065162" transform="translate(1.245 9.046)">
      <path id="Trazado_779597" data-name="Trazado 779597" d="M115.238,131v42.7l-34.986,2.761L45.267,173.7V131a6.558,6.558,0,0,1,6.559-6.559h56.853A6.558,6.558,0,0,1,115.238,131Z" transform="translate(-38.997 -106.324)" fill="#f6f9f9"/>
      <path id="Trazado_779598" data-name="Trazado 779598" d="M115.237,404.208v2.816l-34.986,2.761-34.986-2.761v-2.816Z" transform="translate(-38.996 -339.643)" fill="#dae7ef"/>
      <path id="Trazado_779599" data-name="Trazado 779599" d="M81.911,176.338l-1.657.131L45.27,173.708v-42.7a6.557,6.557,0,0,1,6.557-6.559h3.314a6.558,6.558,0,0,0-6.559,6.559v42.7Z" transform="translate(-38.999 -106.327)" fill="#dae7ef"/>
      <path id="Trazado_779600" data-name="Trazado 779600" d="M83.746,421.172H13.775a6.269,6.269,0,0,0,0,12.539h69.97a6.269,6.269,0,0,0,0-12.539Z" transform="translate(-7.505 -353.791)" fill="#f6f9f9"/>
      <path id="Trazado_779601" data-name="Trazado 779601" d="M89.007,430.837a6.263,6.263,0,0,1-5.268,2.87H13.769a6.27,6.27,0,1,1,0-12.539h2.019a6.27,6.27,0,0,0,5.268,9.669H89.007Z" transform="translate(-7.499 -353.788)" fill="#dae7ef"/>
      <path id="Trazado_779602" data-name="Trazado 779602" d="M83.267,196.006V165.773a3.331,3.331,0,0,1,3.331-3.331H137.29a3.331,3.331,0,0,1,3.331,3.331v30.233a3.08,3.08,0,0,1-3.08,3.08H86.347A3.08,3.08,0,0,1,83.267,196.006Z" transform="translate(-70.688 -138.014)" fill="#9dc6fb"/>
      <g id="Grupo_1065159" data-name="Grupo 1065159" transform="translate(32.07 34.455)">
        <path id="Trazado_779603" data-name="Trazado 779603" d="M206.738,280.242h-3.619a2.443,2.443,0,0,0-2.443,2.443v7.278a2.443,2.443,0,0,0,2.443,2.443h3.619a2.443,2.443,0,0,0,2.443-2.443v-7.278A2.443,2.443,0,0,0,206.738,280.242Z" transform="translate(-200.676 -270.712)" fill="#ffb206"/>
        <path id="Trazado_779604" data-name="Trazado 779604" d="M282.7,222.839h-3.619a2.443,2.443,0,0,0-2.443,2.443V242.09a2.443,2.443,0,0,0,2.443,2.443H282.7a2.443,2.443,0,0,0,2.443-2.443V225.282A2.443,2.443,0,0,0,282.7,222.839Z" transform="translate(-264.028 -222.839)" fill="#e01650"/>
        <path id="Trazado_779605" data-name="Trazado 779605" d="M358.664,255.071h-3.619a2.443,2.443,0,0,0-2.443,2.443v11.457a2.443,2.443,0,0,0,2.443,2.443h3.619a2.443,2.443,0,0,0,2.443-2.443V257.514A2.443,2.443,0,0,0,358.664,255.071Z" transform="translate(-327.38 -249.72)" fill="#8f52f5"/>
      </g>
      <path id="Trazado_779606" data-name="Trazado 779606" d="M198.622,426.692H183.884a5.521,5.521,0,0,1-5.521-5.521h25.779A5.521,5.521,0,0,1,198.622,426.692Z" transform="translate(-149.997 -353.79)" fill="#dae7ef"/>
      <path id="Trazado_779625" data-name="Trazado 779625" d="M17.562,0A17.562,17.562,0,1,1,0,17.562,17.562,17.562,0,0,1,17.562,0Z" transform="translate(3.077 3.487)" fill="#8f52f5"/>
      <path id="Trazado_779607" data-name="Trazado 779607" d="M48.929,36.016A20.715,20.715,0,1,1,28.215,15.3v6.247A14.467,14.467,0,1,0,42.682,36.016Z" transform="translate(-7.5 -15.301)" fill="#ffb206"/>
      <g id="Grupo_1065160" data-name="Grupo 1065160" transform="translate(0)">
        <path id="Trazado_779608" data-name="Trazado 779608" d="M143.249,154.548a14.468,14.468,0,0,0,14.467-14.467h-3.124a14.47,14.47,0,0,1-12.9,14.382A14.612,14.612,0,0,0,143.249,154.548Z" transform="translate(-119.41 -119.366)" fill="#f2ce6b"/>
        <path id="Trazado_779609" data-name="Trazado 779609" d="M10.624,36.016A20.719,20.719,0,0,1,28.215,15.535V15.3a20.715,20.715,0,1,0,0,41.429q.788,0,1.562-.058A20.715,20.715,0,0,1,10.624,36.016Z" transform="translate(-7.5 -15.301)" fill="#f2ce6b"/>
      </g>
      <path id="Trazado_779610" data-name="Trazado 779610" d="M152.994,36.016H132.28V15.3A20.714,20.714,0,0,1,152.994,36.016Z" transform="translate(-111.564 -15.301)" fill="#e01650"/>
      <path id="Trazado_779611" data-name="Trazado 779611" d="M316.274,25.686h20.82a5.687,5.687,0,0,1,5.687,5.687V43.867a5.687,5.687,0,0,1-5.687,5.687h-8.245L322.906,55.5a2.536,2.536,0,0,1-4.33-1.793V49.554h-2.3a5.687,5.687,0,0,1-5.687-5.687V31.373a5.687,5.687,0,0,1,5.687-5.687Z" transform="translate(-260.27 -23.962)" fill="#ffb206"/>
      <g id="Grupo_1065161" data-name="Grupo 1065161" transform="translate(50.317 1.725)">
        <path id="Trazado_779612" data-name="Trazado 779612" d="M312.686,31.379V43.873a5.687,5.687,0,0,0,5.686,5.688h-2.1a5.687,5.687,0,0,1-5.686-5.688V31.379a5.685,5.685,0,0,1,5.686-5.686h2.1A5.685,5.685,0,0,0,312.686,31.379Z" transform="translate(-310.586 -25.693)" fill="#bc8406"/>
        <path id="Trazado_779613" data-name="Trazado 779613" d="M362.3,175.923a2.542,2.542,0,0,1-3.594-2.311v-4.149h2.1v4.149A2.493,2.493,0,0,0,362.3,175.923Z" transform="translate(-350.718 -145.595)" fill="#bc8406"/>
      </g>
    </g>
    <g id="Grupo_1065163" data-name="Grupo 1065163" transform="translate(0 7.801)">
      <path id="Trazado_779614" data-name="Trazado 779614" d="M200.484,272.742h-3.619a3.693,3.693,0,0,0-3.688,3.689v7.278a3.693,3.693,0,0,0,3.688,3.689h3.619a3.693,3.693,0,0,0,3.689-3.689v-7.278a3.693,3.693,0,0,0-3.689-3.689Zm1.2,10.966a1.2,1.2,0,0,1-1.2,1.2h-3.619a1.2,1.2,0,0,1-1.2-1.2v-7.278a1.2,1.2,0,0,1,1.2-1.2h3.619a1.2,1.2,0,0,1,1.2,1.2Z" transform="translate(-161.106 -228.758)"/>
      <path id="Trazado_779615" data-name="Trazado 779615" d="M276.446,215.339h-3.619a3.693,3.693,0,0,0-3.689,3.688v16.808a3.693,3.693,0,0,0,3.689,3.689h3.619a3.693,3.693,0,0,0,3.688-3.689V219.028A3.693,3.693,0,0,0,276.446,215.339Zm1.2,20.5a1.2,1.2,0,0,1-1.2,1.2h-3.619a1.2,1.2,0,0,1-1.2-1.2V219.028a1.2,1.2,0,0,1,1.2-1.2h3.619a1.2,1.2,0,0,1,1.2,1.2Z" transform="translate(-224.457 -180.884)"/>
      <path id="Trazado_779616" data-name="Trazado 779616" d="M348.79,266.406h3.619a3.693,3.693,0,0,0,3.689-3.689V251.26a3.693,3.693,0,0,0-3.689-3.688H348.79a3.693,3.693,0,0,0-3.689,3.688v11.457A3.693,3.693,0,0,0,348.79,266.406Zm-1.2-15.145a1.2,1.2,0,0,1,1.2-1.2h3.619a1.2,1.2,0,0,1,1.2,1.2v11.457a1.2,1.2,0,0,1-1.2,1.2H348.79a1.2,1.2,0,0,1-1.2-1.2Z" transform="translate(-287.809 -207.766)"/>
      <path id="Trazado_779617" data-name="Trazado 779617" d="M121.372,280.461a1.245,1.245,0,0,0-1.705.439l-4.687,7.933-1.349-2.207a1.245,1.245,0,1,0-2.125,1.3l2.429,3.975a1.245,1.245,0,0,0,1.062.6h.009a1.245,1.245,0,0,0,1.063-.612l5.741-9.716A1.245,1.245,0,0,0,121.372,280.461Z" transform="translate(-92.841 -235.05)"/>
      <path id="Trazado_779618" data-name="Trazado 779618" d="M85,28.951V16.457a6.939,6.939,0,0,0-6.931-6.931h-.593a1.245,1.245,0,0,0,0,2.49h.593a4.446,4.446,0,0,1,4.441,4.441V28.951a4.447,4.447,0,0,1-4.441,4.443H69.823a1.246,1.246,0,0,0-.881.365L63,39.7a1.291,1.291,0,0,1-2.2-.913V34.639a1.245,1.245,0,0,0-1.245-1.245h-2.3a4.447,4.447,0,0,1-4.441-4.443V16.457a4.446,4.446,0,0,1,4.441-4.441h15.36a1.245,1.245,0,1,0,0-2.49H57.249a6.939,6.939,0,0,0-6.931,6.931V25.92H43.583A21.959,21.959,0,1,0,6.27,45.109V75.287A7.514,7.514,0,0,0,7.516,90.211H66.1a1.245,1.245,0,0,0,0-2.49H7.516a5.024,5.024,0,0,1,0-10.049H28.483a6.776,6.776,0,0,0,6.649,5.521H49.869a6.776,6.776,0,0,0,6.649-5.521H77.491a5.024,5.024,0,0,1,0,10.049H71.061a1.245,1.245,0,0,0,0,2.49h6.425a7.515,7.515,0,0,0,1.245-14.925V35.852A6.941,6.941,0,0,0,85,28.951ZM49.87,80.7H35.132a4.284,4.284,0,0,1-4.091-3.03H53.96A4.284,4.284,0,0,1,49.87,80.7ZM8.761,75.181V47.3a21.986,21.986,0,0,0,3.818,2.313V67.037A4.33,4.33,0,0,0,16.9,71.363H68.1a4.33,4.33,0,0,0,4.325-4.326V36.8a4.575,4.575,0,0,0-.1-.92h3.915v39.3Zm48.488-39.3h1.058v2.9a3.722,3.722,0,0,0,2.334,3.493,3.84,3.84,0,0,0,1.471.3,3.729,3.729,0,0,0,2.65-1.117l5.117-5.118a2.092,2.092,0,0,1,.053.461V67.037A1.837,1.837,0,0,1,68.1,68.873H16.9a1.837,1.837,0,0,1-1.834-1.836V50.612A21.964,21.964,0,0,0,43.355,34.719H53.408a6.889,6.889,0,0,0,3.841,1.165ZM50.318,28.41v.541a6.89,6.89,0,0,0,.825,3.277H43.78a22.1,22.1,0,0,0,.139-2.467c0-.454-.016-.9-.043-1.351Zm-8.928.106H23.206V10.331A19.5,19.5,0,0,1,41.39,28.516ZM20.715,10.332V14.1a15.71,15.71,0,0,0-9.93,26.706,1.245,1.245,0,0,0,1.771-1.751A13.218,13.218,0,0,1,20.715,16.6V29.762a1.245,1.245,0,0,0,1.245,1.245H35.122A13.238,13.238,0,0,1,21.961,42.983a13.1,13.1,0,0,1-5.706-1.29,1.245,1.245,0,0,0-1.076,2.246,15.565,15.565,0,0,0,6.782,1.535A15.733,15.733,0,0,0,37.623,31.007h3.765A19.469,19.469,0,1,1,20.715,10.332Z" transform="translate(0 -7.801)"/>
      <path id="Trazado_779619" data-name="Trazado 779619" d="M353.644,56.5H340.067a1.245,1.245,0,1,0,0,2.49h13.577a1.245,1.245,0,0,0,0-2.49Z" transform="translate(-282.572 -48.415)"/>
      <path id="Trazado_779620" data-name="Trazado 779620" d="M452.51,58.99h1.66a1.245,1.245,0,0,0,0-2.49h-1.66a1.245,1.245,0,0,0,0,2.49Z" transform="translate(-376.348 -48.415)"/>
      <path id="Trazado_779621" data-name="Trazado 779621" d="M353.644,85.764H340.067a1.245,1.245,0,1,0,0,2.49h13.577a1.245,1.245,0,0,0,0-2.49Z" transform="translate(-282.572 -72.821)"/>
      <path id="Trazado_779622" data-name="Trazado 779622" d="M452.51,88.254h1.66a1.245,1.245,0,0,0,0-2.49h-1.66a1.245,1.245,0,0,0,0,2.49Z" transform="translate(-376.348 -72.821)"/>
      <path id="Trazado_779623" data-name="Trazado 779623" d="M353.644,115.027H340.067a1.245,1.245,0,1,0,0,2.49h13.577a1.245,1.245,0,0,0,0-2.49Z" transform="translate(-282.572 -97.226)"/>
      <path id="Trazado_779624" data-name="Trazado 779624" d="M452.51,117.517h1.66a1.245,1.245,0,0,0,0-2.49h-1.66a1.245,1.245,0,0,0,0,2.49Z" transform="translate(-376.348 -97.226)"/>
    </g>
  </g>
</svg>
