<svg id="Grupo_1065131" data-name="Grupo 1065131" xmlns="http://www.w3.org/2000/svg" width="92.46" height="92.46" viewBox="0 0 92.46 92.46">
  <g id="Grupo_1065129" data-name="Grupo 1065129" transform="translate(1.491 1.491)">
    <g id="Grupo_1065115" data-name="Grupo 1065115" transform="translate(32.689 71.582)">
      <path id="Trazado_779514" data-name="Trazado 779514" d="M55.848,49V60.93H34.97V59.439A4.468,4.468,0,0,0,30.5,54.965H23.039V50.491a8,8,0,0,0-.119-1.476L23.039,49Z" transform="translate(-22.92 -49)" fill="#ccd1d9"/>
    </g>
    <g id="Grupo_1065116" data-name="Grupo 1065116" transform="translate(35.791 83.512)">
      <path id="Trazado_779515" data-name="Trazado 779515" d="M69.739,58.491v2.983a1.5,1.5,0,0,1-1.491,1.491H26.491A1.5,1.5,0,0,1,25,61.474V57H68.247A1.5,1.5,0,0,1,69.739,58.491Z" transform="translate(-25 -57)" fill="#ccd1d9"/>
    </g>
    <g id="Grupo_1065117" data-name="Grupo 1065117" transform="translate(65.617 71.582)">
      <path id="Trazado_779516" data-name="Trazado 779516" d="M45,49h5.965V60.93H45Z" transform="translate(-45 -49)" fill="#ccd1d9"/>
    </g>
    <g id="Grupo_1065118" data-name="Grupo 1065118" transform="translate(29.751 22.265)">
      <path id="Trazado_779517" data-name="Trazado 779517" d="M80.676,19.017V63.756a1.5,1.5,0,0,1-1.491,1.491H24.007l-.119.015a10.292,10.292,0,0,0-2.938-5.906l.075-.075H74.711V23.491H62.781V15.93a11.846,11.846,0,0,0,5.965,1.6H79.185A1.5,1.5,0,0,1,80.676,19.017Z" transform="translate(-20.95 -15.93)" fill="#ccd1d9"/>
    </g>
    <g id="Grupo_1065119" data-name="Grupo 1065119" transform="translate(26.843 29.826)">
      <path id="Trazado_779518" data-name="Trazado 779518" d="M21.983,56.791l-.075.075A10.242,10.242,0,0,0,19,54.822V47.843h5.965a5.98,5.98,0,0,0,5.965-5.965H62.247a1.5,1.5,0,0,0,1.491-1.491V21h11.93V56.791Z" transform="translate(-19 -21)" fill="#4fc1e9"/>
    </g>
    <g id="Grupo_1065120" data-name="Grupo 1065120" transform="translate(65.617)">
      <path id="Trazado_779519" data-name="Trazado 779519" d="M56.93,1A11.93,11.93,0,1,1,45.373,15.913a12.117,12.117,0,0,1,0-5.965A11.951,11.951,0,0,1,56.93,1Z" transform="translate(-45 -1)" fill="#e01650"/>
    </g>
    <g id="Grupo_1065121" data-name="Grupo 1065121" transform="translate(32.808 2.983)">
      <path id="Trazado_779520" data-name="Trazado 779520" d="M56.181,14.93a12.117,12.117,0,0,1,0-5.965A12,12,0,0,1,59.85,3H24.491A1.5,1.5,0,0,0,23,4.491v7.456h1.79a9.988,9.988,0,0,1,4.176.895V8.965H40.9V20.9h-6.04a10.459,10.459,0,0,1,.075,1.193,10.13,10.13,0,0,1-5.607,9.067l-.432.209a10.941,10.941,0,0,1,.075,1.208v2a10.193,10.193,0,0,0,2.983,7.2l-2.983,2.983v5.965H60.282a1.5,1.5,0,0,0,1.491-1.491V22.282A11.925,11.925,0,0,1,56.181,14.93Zm-.373,29.826H46.861V38.791h8.948Z" transform="translate(-23 -3)" fill="#e6e9ed"/>
    </g>
    <g id="Grupo_1065122" data-name="Grupo 1065122" transform="translate(56.669 38.774)">
      <path id="Trazado_779521" data-name="Trazado 779521" d="M39,27h8.948v5.965H39Z" transform="translate(-39 -27)" fill="#b4dd7f"/>
    </g>
    <g id="Grupo_1065123" data-name="Grupo 1065123" transform="translate(38.774 8.948)">
      <path id="Trazado_779522" data-name="Trazado 779522" d="M38.93,7V18.93h-6.04A10.092,10.092,0,0,0,30,12.95a9.987,9.987,0,0,0-3-2.073V7Z" transform="translate(-27 -7)" fill="#8f52f5"/>
    </g>
    <g id="Grupo_1065124" data-name="Grupo 1065124" transform="translate(11.93 62.634)">
      <path id="Trazado_779523" data-name="Trazado 779523" d="M32.861,66.861h-17.9A5.964,5.964,0,0,1,9,60.9V47.832A5.389,5.389,0,0,1,11.983,43h7.456a10.406,10.406,0,0,1,10.32,8.963,8,8,0,0,1,.119,1.476v4.474h2.983v8.948Z" transform="translate(-9 -43)" fill="#8f52f5"/>
    </g>
    <g id="Grupo_1065125" data-name="Grupo 1065125" transform="translate(0 11.93)">
      <path id="Trazado_779524" data-name="Trazado 779524" d="M38.476,24.644a4.735,4.735,0,0,1-.447.507,6,6,0,0,1-4.22,1.745H23.369A5.964,5.964,0,0,0,17.4,32.861H15.913a4.474,4.474,0,0,0,0,8.948H17.4v2.073a10.034,10.034,0,0,1-3.788,7.859,7.126,7.126,0,0,0-.671-.671L8.113,46.73A21.675,21.675,0,0,1,22.743,9H35.6a10.112,10.112,0,0,1,7.173,2.968,10.092,10.092,0,0,1,2.893,5.98,10.458,10.458,0,0,1,.075,1.193,10.13,10.13,0,0,1-5.607,9.067l-.432.209A9.939,9.939,0,0,0,38.476,24.644Z" transform="translate(-1 -9)" fill="#ffb206"/>
    </g>
    <g id="Grupo_1065126" data-name="Grupo 1065126" transform="translate(35.791 77.547)">
      <path id="Trazado_779525" data-name="Trazado 779525" d="M33.948,57.474v1.491H25V53h4.474A4.468,4.468,0,0,1,33.948,57.474Z" transform="translate(-25 -53)" fill="#f5e0cd"/>
    </g>
    <g id="Grupo_1065127" data-name="Grupo 1065127" transform="translate(10.439 27.574)">
      <path id="Trazado_779526" data-name="Trazado 779526" d="M29.132,43.858a6,6,0,0,0,4.22,1.745h2.177a5.935,5.935,0,0,1-5.16,2.983H24.4v6.979A10.207,10.207,0,0,0,19.93,54.55H12.474V52.567a8.918,8.918,0,0,0-2.3-5.98,10.034,10.034,0,0,0,3.788-7.859V36.655H12.474a4.474,4.474,0,0,1,0-8.948h1.491a5.964,5.964,0,0,1,5.965-5.965H30.369A6,6,0,0,0,34.59,20a4.735,4.735,0,0,0,.447-.507,9.939,9.939,0,0,1,1.223,3.773,10.941,10.941,0,0,1,.075,1.208v2a10.193,10.193,0,0,0,2.983,7.2l-2.983,2.983v2.983H27.387a6,6,0,0,0,1.745,4.22Z" transform="translate(-8 -19.49)" fill="#f5e0cd"/>
    </g>
    <g id="Grupo_1065128" data-name="Grupo 1065128" transform="translate(29.826 47.721)">
      <path id="Trazado_779527" data-name="Trazado 779527" d="M29.948,33v2.983a5.949,5.949,0,0,1-.805,2.983H26.965A5.957,5.957,0,0,1,21,33Z" transform="translate(-21 -33)" fill="#ef7385"/>
    </g>
  </g>
  <g id="Grupo_1065130" data-name="Grupo 1065130">
    <path id="Trazado_779528" data-name="Trazado 779528" d="M20.983,28.474a1.491,1.491,0,0,1,2.983,0v1.491h2.983V28.474a4.474,4.474,0,1,0-8.948,0v1.491h2.983Z" transform="translate(8.843 11.791)"/>
    <path id="Trazado_779529" data-name="Trazado 779529" d="M62.41,7.289,60.146,5.35l-7.9,9.215L50.4,12.721,48.293,14.83l4.122,4.122Z" transform="translate(23.726 2.628)"/>
    <path id="Trazado_779530" data-name="Trazado 779530" d="M38,14h5.965v2.983H38Z" transform="translate(18.669 6.878)"/>
    <path id="Trazado_779531" data-name="Trazado 779531" d="M38,34.948H49.93V26H38Zm2.983-5.965h5.965v2.983H40.983Z" transform="translate(18.669 12.774)"/>
    <path id="Trazado_779532" data-name="Trazado 779532" d="M89.477,23.861H87.457A13.411,13.411,0,1,0,70.62,2.983H35.791a2.986,2.986,0,0,0-2.983,2.983V11.93H23.23A23.159,23.159,0,0,0,7.613,52.255l4.83,4.349a7.465,7.465,0,0,1,2.47,5.542v1.133a6.845,6.845,0,0,0-2.983,5.674V82.021a7.465,7.465,0,0,0,7.456,7.456h16.4a2.986,2.986,0,0,0,2.983,2.983H80.53a2.986,2.986,0,0,0,2.983-2.983V86.495a2.986,2.986,0,0,0-2.983-2.983H74.564V74.564H89.477a2.986,2.986,0,0,0,2.983-2.983V26.843A2.986,2.986,0,0,0,89.477,23.861ZM79.038,2.983A10.439,10.439,0,1,1,68.6,13.422,10.452,10.452,0,0,1,79.038,2.983ZM31.726,65.617a11.982,11.982,0,0,0-1.9-1.369v-4.6H34.3a7.47,7.47,0,0,0,7.306-5.965H71.582A2.986,2.986,0,0,0,74.564,50.7v-17.9h8.948V65.617Zm-15.606-9.27a11.463,11.463,0,0,0,3.267-8.037V44.739H16.4a2.983,2.983,0,0,1,0-5.965h2.983V37.282a4.479,4.479,0,0,1,4.474-4.474H34.3a7.4,7.4,0,0,0,4.1-1.239,8.679,8.679,0,0,1,.374,2.474v2a11.766,11.766,0,0,0,2.434,7.131l-2.434,2.434v2.109H29.826v1.491a7.457,7.457,0,0,0,5.762,7.245,4.391,4.391,0,0,1-1.288.212H22.369v2.983h4.474v3.375a11.86,11.86,0,0,0-2.983-.392H17.9v-.489A10.43,10.43,0,0,0,16.119,56.347ZM38.774,52.2a4.424,4.424,0,0,1-.274,1.491H37.282A4.483,4.483,0,0,1,33.063,50.7h5.71ZM35.791,5.965h32.1A13.429,13.429,0,0,0,66.4,8.948H56.669V11.93H65.7a12.683,12.683,0,0,0,0,2.983H56.669V17.9H66.4a13.471,13.471,0,0,0,5.182,6.678V50.7H41.756V46.847l3.6-3.6L44.3,42.193a8.751,8.751,0,0,1-2.546-6.146v-.257h17.9V32.808H43.109a11.537,11.537,0,0,0,2.781-2.983H68.6V26.843H47.252a11.784,11.784,0,0,0,.45-2.983h5.985V8.948H38.774v3.308a11.54,11.54,0,0,0-2.683-.325h-.3ZM47.4,20.878a11.669,11.669,0,0,0-5.64-7.465V11.93H50.7v8.948ZM9.608,50.039A20.046,20.046,0,0,1,2.983,35.16,20.271,20.271,0,0,1,23.23,14.913H36.091a8.638,8.638,0,0,1,5.1,15.618,11.669,11.669,0,0,0-.523-1.356,7.369,7.369,0,0,0,1.09-3.824A7.465,7.465,0,0,0,34.3,17.9H32.808v2.983H34.3a4.474,4.474,0,1,1,0,8.948H23.861a7.468,7.468,0,0,0-7.306,5.965H16.4a5.965,5.965,0,1,0,0,11.93v.589a8.495,8.495,0,0,1-2.277,5.8Zm9.778,36.456a4.479,4.479,0,0,1-4.474-4.474V68.951a3.882,3.882,0,0,1,1.873-3.335h7.075a8.957,8.957,0,0,1,8.948,8.948v2.983H23.861V74.916a6.854,6.854,0,0,0-3.807-6.161l-1.335,2.668a3.885,3.885,0,0,1,2.159,3.493v3.5l-2.546,2.546,2.109,2.109,2.546-2.546h12.8v5.965Zm16.4-11.93H65.617v8.948h-17.9a5.971,5.971,0,0,0-5.965-5.965H35.791Zm2.983,5.965h2.983a2.986,2.986,0,0,1,2.983,2.983H38.774ZM80.53,89.477H38.774V86.495H80.53Zm-8.948-5.965H68.6V74.564h2.983Zm17.9-11.93H35.4A11.874,11.874,0,0,0,34.177,68.6H86.495V29.826H74.564V26.06a13.327,13.327,0,0,0,4.474.783H89.477Z"/>
    <path id="Trazado_779533" data-name="Trazado 779533" d="M50,40h2.983v2.983H50Z" transform="translate(24.564 19.652)"/>
    <path id="Trazado_779534" data-name="Trazado 779534" d="M46,40h2.983v2.983H46Z" transform="translate(22.599 19.652)"/>
    <path id="Trazado_779535" data-name="Trazado 779535" d="M42,40h2.983v2.983H42Z" transform="translate(20.634 19.652)"/>
  </g>
</svg>
