<svg id="Grupo_1065153" data-name="Grupo 1065153" xmlns="http://www.w3.org/2000/svg" width="90.083" height="90.083" viewBox="0 0 90.083 90.083">
  <g id="Grupo_1065151" data-name="Grupo 1065151" transform="translate(1.453 1.453)">
    <g id="Grupo_1065133" data-name="Grupo 1065133" transform="translate(65.383 43.589)">
      <path id="Trazado_779536" data-name="Trazado 779536" d="M66.138,44.454,58.074,47.8A13.035,13.035,0,0,0,46,39.718V31A21.806,21.806,0,0,1,66.138,44.454Z" transform="translate(-46 -31)" fill="#8f52f5"/>
    </g>
    <g id="Grupo_1065134" data-name="Grupo 1065134" transform="translate(65.383 57.043)">
      <path id="Trazado_779537" data-name="Trazado 779537" d="M66.138,40.26a21.569,21.569,0,0,1,1.656,8.34A21.8,21.8,0,0,1,46,70.394V61.677A13.078,13.078,0,0,0,59.077,48.6a12.739,12.739,0,0,0-1-5Z" transform="translate(-46 -40.26)" fill="#fcd770"/>
    </g>
    <g id="Grupo_1065135" data-name="Grupo 1065135" transform="translate(42.484 64.874)">
      <path id="Trazado_779538" data-name="Trazado 779538" d="M30.24,50.5a13,13,0,0,0,9.822-4.853l.015.015c-.015.16-.015.32-.015.494A13.078,13.078,0,0,0,53.139,59.235v8.718a21.789,21.789,0,0,1-18.147-9.72,2.856,2.856,0,0,0,.712-1.9V53.423A2.914,2.914,0,0,0,32.8,50.517H30.24Z" transform="translate(-30.24 -45.65)" fill="#e01650"/>
    </g>
    <g id="Grupo_1065136" data-name="Grupo 1065136" transform="translate(52.045 43.589)">
      <path id="Trazado_779539" data-name="Trazado 779539" d="M39.987,44.077a13,13,0,0,0-3.167-8.529A21.75,21.75,0,0,1,50.158,31v8.718a13.038,13.038,0,0,0-10.171,4.853h-.015C39.987,44.411,39.987,44.236,39.987,44.077Z" transform="translate(-36.82 -31)" fill="#e01650"/>
    </g>
    <g id="Grupo_1065137" data-name="Grupo 1065137" transform="translate(49.4)">
      <path id="Trazado_779540" data-name="Trazado 779540" d="M35,1h8.718V6.812H35Z" transform="translate(-35 -1)" fill="#e01650"/>
    </g>
    <g id="Grupo_1065138" data-name="Grupo 1065138" transform="translate(49.4 11.624)">
      <path id="Trazado_779541" data-name="Trazado 779541" d="M35,9h8.718v5.812H35Z" transform="translate(-35 -9)" fill="#e01650"/>
    </g>
    <g id="Grupo_1065139" data-name="Grupo 1065139" transform="translate(49.4 23.247)">
      <path id="Trazado_779542" data-name="Trazado 779542" d="M35,17h8.718v5.812H35Z" transform="translate(-35 -17)" fill="#e01650"/>
    </g>
    <g id="Grupo_1065140" data-name="Grupo 1065140" transform="translate(0 11.624)">
      <path id="Trazado_779543" data-name="Trazado 779543" d="M38.777,26.435H19.888a4.353,4.353,0,0,1-4.359-4.359H14.077a7.267,7.267,0,0,0-7.265,7.265v2.906H5.359a4.361,4.361,0,0,0-2.5.785A16.437,16.437,0,0,1,17.433,9H28.156A16.437,16.437,0,0,1,42.729,33.032a4.361,4.361,0,0,0-2.5-.785H38.777Z" transform="translate(-1 -9)" fill="#b27946"/>
    </g>
    <g id="Grupo_1065141" data-name="Grupo 1065141" transform="translate(39.23 78.459)">
      <path id="Trazado_779544" data-name="Trazado 779544" d="M33.812,55v7.265a1.457,1.457,0,0,1-1.453,1.453H29.453A1.457,1.457,0,0,1,28,62.265V55Z" transform="translate(-28 -55)" fill="#969faa"/>
    </g>
    <g id="Grupo_1065142" data-name="Grupo 1065142" transform="translate(13.077 58.118)">
      <path id="Trazado_779545" data-name="Trazado 779545" d="M21.624,52.624H33.247a2.914,2.914,0,0,1,2.906,2.906v5.812a2.914,2.914,0,0,1-2.906,2.906H18.718A8.725,8.725,0,0,1,10,55.53V46.812A5.81,5.81,0,0,1,15.812,41c.2,0,.392.015.6.029A6.7,6.7,0,0,1,19.924,42.7a5.848,5.848,0,0,1,1.7,4.112Z" transform="translate(-10 -41)" fill="#ffb206"/>
    </g>
    <g id="Grupo_1065143" data-name="Grupo 1065143" transform="translate(19.484 56.912)">
      <path id="Trazado_779546" data-name="Trazado 779546" d="M31.25,53H19.626V47.188a5.848,5.848,0,0,0-1.7-4.112,6.7,6.7,0,0,0-3.516-1.671v-.058c.276.015.567.029.857.029h2.906a14.593,14.593,0,0,0,5.812-1.206A13.084,13.084,0,0,0,37.062,53a2.8,2.8,0,0,0,.349-.015V53a2.906,2.906,0,0,0-2.6,1.613l-.654,1.293A2.914,2.914,0,0,0,31.25,53Z" transform="translate(-14.41 -40.17)" fill="#ffb206"/>
    </g>
    <g id="Grupo_1065144" data-name="Grupo 1065144" transform="translate(39.23 69.742)">
      <path id="Trazado_779547" data-name="Trazado 779547" d="M36.718,51.906v2.906a2.856,2.856,0,0,1-.712,1.9,2.924,2.924,0,0,1-2.194,1H28V51.906l.654-1.293A2.906,2.906,0,0,1,31.255,49h2.557A2.914,2.914,0,0,1,36.718,51.906Z" transform="translate(-28 -49)" fill="#f0d0b4"/>
    </g>
    <g id="Grupo_1065145" data-name="Grupo 1065145" transform="translate(37.777 34.871)">
      <path id="Trazado_779548" data-name="Trazado 779548" d="M30.952,25.785a4.362,4.362,0,0,1-2.5,7.933H27V25h1.453a4.361,4.361,0,0,1,2.5.785Z" transform="translate(-27 -25)" fill="#f0d0b4"/>
    </g>
    <g id="Grupo_1065146" data-name="Grupo 1065146" transform="translate(5.812 24.7)">
      <path id="Trazado_779549" data-name="Trazado 779549" d="M36.95,37.644a13.084,13.084,0,0,0-8.7,12.321v.247a14.593,14.593,0,0,1-5.812,1.206H19.53c-.291,0-.581-.015-.857-.029A14.534,14.534,0,0,1,5,36.888V25.265A7.267,7.267,0,0,1,12.265,18h1.453a4.353,4.353,0,0,0,4.359,4.359H36.965v14.53C36.965,37.135,36.965,37.4,36.95,37.644Z" transform="translate(-5 -18)" fill="#f0d0b4"/>
    </g>
    <g id="Grupo_1065147" data-name="Grupo 1065147" transform="translate(0 34.871)">
      <path id="Trazado_779550" data-name="Trazado 779550" d="M6.812,25v8.718H5.359a4.356,4.356,0,0,1-3.08-7.439,4.742,4.742,0,0,1,.581-.494A4.361,4.361,0,0,1,5.359,25Z" transform="translate(-1 -25)" fill="#f0d0b4"/>
    </g>
    <g id="Grupo_1065148" data-name="Grupo 1065148" transform="translate(15.982 46.494)">
      <path id="Trazado_779551" data-name="Trazado 779551" d="M12,33H23.624A5.812,5.812,0,1,1,12,33Z" transform="translate(-12 -33)" fill="#ff826e"/>
    </g>
    <g id="Grupo_1065149" data-name="Grupo 1065149" transform="translate(29.059 43.589)">
      <path id="Trazado_779552" data-name="Trazado 779552" d="M47.153,44.077c0,.16,0,.334-.015.494A13.067,13.067,0,0,1,34.425,57.139a2.8,2.8,0,0,1-.349.015A13.084,13.084,0,0,1,21,44.324v-.247a13.084,13.084,0,0,1,8.7-12.321A12.807,12.807,0,0,1,34.077,31,13.083,13.083,0,0,1,47.153,44.077Z" transform="translate(-21 -31)" fill="#ccd1d9"/>
    </g>
    <g id="Grupo_1065150" data-name="Grupo 1065150" transform="translate(34.369 49.567)">
      <ellipse id="Elipse_8718" data-name="Elipse 8718" cx="7.5" cy="7" rx="7.5" ry="7" transform="translate(0.275 0.078)" fill="#69d6f4"/>
    </g>
  </g>
  <g id="Grupo_1065152" data-name="Grupo 1065152">
    <path id="Trazado_779553" data-name="Trazado 779553" d="M25.53,33.453V32H11v1.453a7.265,7.265,0,0,0,14.53,0ZM14.154,34.906h8.219a4.359,4.359,0,0,1-8.219,0Z" transform="translate(4.982 14.494)"/>
    <path id="Trazado_779554" data-name="Trazado 779554" d="M15.718,29.812h2.906A5.812,5.812,0,1,0,7,29.812H9.906a2.906,2.906,0,1,1,5.812,0Z" transform="translate(3.171 10.871)"/>
    <path id="Trazado_779555" data-name="Trazado 779555" d="M22.812,26.906a2.909,2.909,0,0,1,2.906,2.906h2.906a5.812,5.812,0,0,0-11.624,0h2.906A2.909,2.909,0,0,1,22.812,26.906Z" transform="translate(7.7 10.871)"/>
    <path id="Trazado_779556" data-name="Trazado 779556" d="M24,42.718A8.718,8.718,0,1,0,32.718,34,8.726,8.726,0,0,0,24,42.718Zm14.53,0a5.812,5.812,0,1,1-5.812-5.812A5.818,5.818,0,0,1,38.53,42.718Z" transform="translate(10.871 15.4)"/>
    <path id="Trazado_779557" data-name="Trazado 779557" d="M66.836,39.965a22.994,22.994,0,0,0-13.156,4.1A14.489,14.489,0,0,0,45.6,40.12a5.717,5.717,0,0,0-.67-7A17.823,17.823,0,0,0,28.6,8H17.892A17.825,17.825,0,0,0,1.562,33.122a5.793,5.793,0,0,0,4.25,9.749h.073A16.009,16.009,0,0,0,15.724,56.2a7.221,7.221,0,0,0-2.647,5.56v8.721A10.182,10.182,0,0,0,23.247,80.648h14.53a4.31,4.31,0,0,0,1.453-.267v3.173a2.909,2.909,0,0,0,2.906,2.906h2.906a2.909,2.909,0,0,0,2.906-2.906V77.474a4.263,4.263,0,0,0,.4-.163A23.248,23.248,0,1,0,66.836,39.965ZM26.063,57.331a15.755,15.755,0,0,0,3.186-.6,14.516,14.516,0,0,0,5.658,9.388H27.6v-4.36a7.186,7.186,0,0,0-1.542-4.426ZM42.136,70.82l.5-.994a1.445,1.445,0,0,1,1.3-.8h2.563a1.455,1.455,0,0,1,1.453,1.453v2.906a1.455,1.455,0,0,1-1.453,1.453H42.136Zm7.629-3.194a14.508,14.508,0,0,0,2.8-1.729,14.5,14.5,0,0,0,3.027,6.5l-4.129,4.129c-.363-.42-.687-.879-1.019-1.331a4.31,4.31,0,0,0,.41-1.818V70.477a4.323,4.323,0,0,0-1.088-2.851ZM76.024,51.969a14.617,14.617,0,0,0-2.316-1.553l2.224-5.372a20.365,20.365,0,0,1,4.2,2.813Zm-5-2.665a14.443,14.443,0,0,0-2.736-.548V42.945a20.193,20.193,0,0,1,4.963.979Zm-5.642-.541a14.443,14.443,0,0,0-7.528,3.022,14.456,14.456,0,0,0-2.29-5.5,20.067,20.067,0,0,1,9.818-3.356ZM57.647,74.455a14.46,14.46,0,0,0,7.736,3.212v5.8A20.254,20.254,0,0,1,53.53,78.573Zm9.188.381A11.637,11.637,0,0,1,55.212,63.212v-.038a14.431,14.431,0,0,0,2.849-7.563,11.617,11.617,0,1,1,8.774,19.224ZM78.079,54.024l4.112-4.112A20.385,20.385,0,0,1,85,54.115L79.632,56.34A14.455,14.455,0,0,0,78.079,54.024Zm-22.867.471A11.624,11.624,0,1,1,43.589,42.871,11.637,11.637,0,0,1,55.212,54.494ZM43.589,37.059a2.909,2.909,0,0,1-2.906,2.906V34.153A2.909,2.909,0,0,1,43.589,37.059Zm-40.683,0a2.909,2.909,0,0,1,2.906-2.906v5.812A2.909,2.909,0,0,1,2.906,37.059Zm2.906-7.265v1.453a5.713,5.713,0,0,0-1.774.307A14.943,14.943,0,0,1,17.89,10.906H28.6A14.939,14.939,0,0,1,42.455,31.552a5.738,5.738,0,0,0-1.773-.305V26.888A10,10,0,0,0,32.3,17l-1.552-.259L30.272,19.6l1.552.259a7.094,7.094,0,0,1,5.8,5.572H20.341a2.906,2.906,0,1,1,0-5.812h2.906V16.718H20.341a5.807,5.807,0,0,0-5.605,4.359H14.53a8.727,8.727,0,0,0-8.718,8.718ZM8.718,41.418V29.794a5.82,5.82,0,0,1,5.812-5.812h.206a5.807,5.807,0,0,0,5.605,4.359H37.777V41.187A14.542,14.542,0,0,0,29.1,53.721a13.028,13.028,0,0,1-4.4.773H21.794A13.092,13.092,0,0,1,8.718,41.418ZM37.777,77.742H23.247a7.273,7.273,0,0,1-7.265-7.265V61.758a4.359,4.359,0,0,1,8.718,0v5.373l-2.66,3.993,2.418,1.611,2.471-3.711H37.777a1.455,1.455,0,0,1,1.453,1.453v5.812A1.455,1.455,0,0,1,37.777,77.742Zm4.359,5.812V77.742h2.906v5.812Zm26.153-.074V77.668A14.513,14.513,0,0,0,80.743,59.023l5.38-2.229A20.281,20.281,0,0,1,68.289,83.479Z" transform="translate(0 3.624)"/>
    <path id="Trazado_779558" data-name="Trazado 779558" d="M45.624,0H34V8.718H45.624ZM42.718,5.812H36.906V2.906h5.812Z" transform="translate(15.4)"/>
    <path id="Trazado_779559" data-name="Trazado 779559" d="M44,0H70.153V2.906H44Z" transform="translate(19.93)"/>
    <path id="Trazado_779560" data-name="Trazado 779560" d="M44,4H70.153V6.906H44Z" transform="translate(19.93 1.812)"/>
    <path id="Trazado_779561" data-name="Trazado 779561" d="M45.624,8H34v8.718H45.624Zm-2.906,5.812H36.906V10.906h5.812Z" transform="translate(15.4 3.624)"/>
    <path id="Trazado_779562" data-name="Trazado 779562" d="M44,8H70.153v2.906H44Z" transform="translate(19.93 3.624)"/>
    <path id="Trazado_779563" data-name="Trazado 779563" d="M44,12H70.153v2.906H44Z" transform="translate(19.93 5.435)"/>
    <path id="Trazado_779564" data-name="Trazado 779564" d="M45.624,16H34v8.718H45.624Zm-2.906,5.812H36.906V18.906h5.812Z" transform="translate(15.4 7.247)"/>
    <path id="Trazado_779565" data-name="Trazado 779565" d="M44,16H70.153v2.906H44Z" transform="translate(19.93 7.247)"/>
    <path id="Trazado_779566" data-name="Trazado 779566" d="M44,20H70.153v2.906H44Z" transform="translate(19.93 9.059)"/>
  </g>
</svg>
