<svg xmlns="http://www.w3.org/2000/svg" width="87.982" height="93.849" viewBox="0 0 87.982 93.849">
  <g id="Grupo_1065114" data-name="Grupo 1065114" transform="translate(-2.001)">
    <path id="Trazado_779490" data-name="Trazado 779490" d="M17,91.916H80.055a1.467,1.467,0,0,0,1.466-1.466V2.466A1.467,1.467,0,0,0,80.055,1H18.466A1.467,1.467,0,0,0,17,2.466Z" transform="translate(6.995 0.466)" fill="#ffb206"/>
    <path id="Trazado_779491" data-name="Trazado 779491" d="M21,83.252H57.66L73.79,68.588V7H21Z" transform="translate(8.861 3.265)" fill="#fffefe"/>
    <path id="Trazado_779492" data-name="Trazado 779492" d="M28.466,15.664h32.26A1.467,1.467,0,0,0,62.193,14.2V1H27V14.2A1.467,1.467,0,0,0,28.466,15.664Z" transform="translate(11.659 0.466)" fill="#8f52f5"/>
    <path id="Trazado_779493" data-name="Trazado 779493" d="M46,49H62.13L46,63.664Z" transform="translate(20.521 22.853)" fill="#ebebeb"/>
    <path id="Trazado_779494" data-name="Trazado 779494" d="M28,17H61.727V40.462H28Z" transform="translate(12.126 7.929)" fill="#e01650"/>
    <path id="Trazado_779495" data-name="Trazado 779495" d="M46.992,30.731,45.009,41.965A35.192,35.192,0,0,1,31.467,64L25,68.857,18.334,63.8A35.2,35.2,0,0,1,4.966,41.884L3,30.731,25,19Z" transform="translate(0.466 8.861)" fill="#8f52f5"/>
    <path id="Trazado_779496" data-name="Trazado 779496" d="M19.81,57.011A29.25,29.25,0,0,1,8.671,38.753L7.444,31.789l15.479-8.256L38.4,31.789,37.16,38.83A29.229,29.229,0,0,1,25.875,57.2l-2.93,2.2Z" transform="translate(2.539 10.975)" fill="#fdfefc"/>
    <path id="Trazado_779497" data-name="Trazado 779497" d="M80.521,0H18.933A2.936,2.936,0,0,0,16,2.933V23.462h2.933V2.933H30.664V8.8H23.332a1.467,1.467,0,0,0-1.466,1.466v13.2H24.8V11.731h5.866v2.933A2.936,2.936,0,0,0,33.6,17.6h32.26a2.936,2.936,0,0,0,2.933-2.933V11.731h5.866V46.924h2.933V10.265A1.467,1.467,0,0,0,76.122,8.8H68.79V2.933H80.521V90.916H18.933v-8.8H16V92.382a1.467,1.467,0,0,0,1.466,1.466H80.521a2.936,2.936,0,0,0,2.933-2.933V2.933A2.936,2.936,0,0,0,80.521,0ZM65.857,14.664H33.6V2.933h32.26Z" transform="translate(6.529)"/>
    <path id="Trazado_779498" data-name="Trazado 779498" d="M75.723,34H72.79V54.529H58.126A1.467,1.467,0,0,0,56.66,56v13.2H22.933V66.26H20v4.4a1.467,1.467,0,0,0,1.466,1.466h36.66a1.523,1.523,0,0,0,.2-.013l.044-.007.023,0,.028-.006a.289.289,0,0,0,.038-.009l.012,0c.04-.01.079-.021.119-.034h0A1.227,1.227,0,0,0,58.717,72h0a1.252,1.252,0,0,0,.117-.059h0c.018-.01.037-.021.054-.032l.022-.015.035-.023.018-.013.037-.026.034-.026.021-.016.053-.045,16.13-14.664c.025-.022.048-.045.07-.069.006-.007.013-.013.019-.021s.038-.043.056-.065c0,0,.007-.007.01-.012.021-.025.04-.051.057-.076.006-.007.01-.015.016-.023s.028-.043.041-.065a.146.146,0,0,0,.012-.021.906.906,0,0,0,.044-.084c0-.007.007-.016.012-.023l.031-.069c0-.009.007-.016.01-.025.012-.029.022-.06.032-.091l0-.013c.009-.028.016-.056.023-.084a.122.122,0,0,1,.006-.022,1.458,1.458,0,0,0,.031-.2c0-.007,0-.016,0-.023,0-.026,0-.054,0-.082V34ZM59.592,57.462h10.87l-7.121,6.474-3.75,3.408Z" transform="translate(8.395 15.857)"/>
    <path id="Trazado_779499" data-name="Trazado 779499" d="M30,5h2.933V7.933H30Z" transform="translate(13.058 2.332)"/>
    <path id="Trazado_779500" data-name="Trazado 779500" d="M46,5h2.933V7.933H46Z" transform="translate(20.521 2.332)"/>
    <path id="Trazado_779501" data-name="Trazado 779501" d="M62.193,16H28.466A1.467,1.467,0,0,0,27,17.466v5.866h2.933v-4.4H60.727V39.462h-22v2.933H62.193a1.467,1.467,0,0,0,1.466-1.466V17.466A1.467,1.467,0,0,0,62.193,16Z" transform="translate(11.659 7.462)"/>
    <path id="Trazado_779502" data-name="Trazado 779502" d="M34,38H50.13v2.933H34Z" transform="translate(14.924 17.723)"/>
    <path id="Trazado_779503" data-name="Trazado 779503" d="M47,38h8.8v2.933H47Z" transform="translate(20.987 17.723)"/>
    <path id="Trazado_779504" data-name="Trazado 779504" d="M31,44H47.13v2.933H31Z" transform="translate(13.525 20.521)"/>
    <path id="Trazado_779505" data-name="Trazado 779505" d="M44,44H57.2v2.933H44Z" transform="translate(19.588 20.521)"/>
    <path id="Trazado_779506" data-name="Trazado 779506" d="M26,50H50.929v2.933H26Z" transform="translate(11.193 23.319)"/>
    <path id="Trazado_779507" data-name="Trazado 779507" d="M34,5H48.664V7.933H34Z" transform="translate(14.924 2.332)"/>
    <path id="Trazado_779508" data-name="Trazado 779508" d="M25.462,70.79a1.459,1.459,0,0,0,.88-.293l6.471-4.854A36.53,36.53,0,0,0,46.919,42.686L48.9,31.452a1.466,1.466,0,0,0-.754-1.549l-22-11.731a1.465,1.465,0,0,0-1.38,0L2.777,29.9a1.467,1.467,0,0,0-.754,1.549L3.99,42.607A36.556,36.556,0,0,0,17.914,65.43l6.662,5.062A1.465,1.465,0,0,0,25.462,70.79ZM6.877,42.1,5.1,31.991,25.462,21.128,45.828,31.991l-1.8,10.186A33.61,33.61,0,0,1,31.053,63.3l-5.585,4.189-5.78-4.392A33.632,33.632,0,0,1,6.877,42.1Z" transform="translate(0 8.395)"/>
    <path id="Trazado_779509" data-name="Trazado 779509" d="M29.22,56.533A27.182,27.182,0,0,0,39.715,39.454l1.455-8.238a1.466,1.466,0,0,0-.754-1.549l-7.335-3.912L31.7,28.343l6.4,3.412-1.27,7.19A24.262,24.262,0,0,1,27.462,54.19L23.6,57.084l-4-3.043a24.27,24.27,0,0,1-9.246-15.154l-1.26-7.134,6.395-3.411-1.38-2.588L6.776,29.666a1.467,1.467,0,0,0-.754,1.549l1.441,8.18a27.2,27.2,0,0,0,10.36,16.981l4.886,3.711a1.466,1.466,0,0,0,1.767.006Z" transform="translate(1.865 12.012)"/>
    <path id="Trazado_779510" data-name="Trazado 779510" d="M20.084,25.567l5.178,2.761,1.38-2.588-5.868-3.129a1.465,1.465,0,0,0-1.38,0l-5.864,3.128,1.38,2.588Z" transform="translate(5.377 10.465)"/>
    <path id="Trazado_779511" data-name="Trazado 779511" d="M18.717,44.5h.056a1.465,1.465,0,0,0,1.1-.5L30.14,32.273l-2.207-1.931-9.074,10.37-3.313-4.42L13.2,38.052l4.4,5.866A1.471,1.471,0,0,0,18.717,44.5Z" transform="translate(5.223 14.151)"/>
    <path id="Trazado_779512" data-name="Trazado 779512" d="M17,28h2.933v2.933H17Z" transform="translate(6.995 13.059)"/>
    <path id="Trazado_779513" data-name="Trazado 779513" d="M17,42h2.933v2.933H17Z" transform="translate(6.995 19.588)"/>
  </g>
</svg>
